<svg version="1" xmlns="http://www.w3.org/2000/svg" width="1333.333" height="1333.333" viewBox="0 0 1000.000000 1000.000000"><path d="M317.8 295.4c-50.2 18.2-72 114.5-41.2 182.3 18.8 41.4 53.9 56.9 83 36.4 43.6-30.6 56.8-120.9 26.3-180.1-9.4-18.3-20.5-30-34.7-36.8-6.5-3.1-8.5-3.6-17-3.9-8.4-.3-10.6-.1-16.4 2.1zM656.6 294.1c-7.1 1.7-17.9 8.2-24.7 14.9-28.5 28.1-41.2 84-30.9 135.2 9.7 47.5 36.1 78.8 66.5 78.8 18.3 0 35-10.8 48.3-31.3 15.9-24.6 24.3-62.8 21.3-97.5-4.3-50.1-25.6-88.5-55-98.8-7.1-2.5-17.9-3.1-25.5-1.3zM224.2 629c-8.4 5.1-9.6 20-2.8 34.5 6.4 13.6 5.9 23.5-1.4 26.5-10.1 4.2-25-11.5-25-26.2 0-5.8 1.9-11.3 4.1-12 1.3-.4-6.1-18-7.8-18.5-2-.7-7.2 4.8-9 9.5-2.8 7.3-2.4 19.7 1 29.5 9.5 27.5 35.5 44.6 49.4 32.3 9.6-8.3 10.2-23.9 1.7-42.5-3.7-8-4.3-14-1.8-16.5 6.4-6.5 18.4 9.2 13 16.9-1.2 1.8-.9 2.7 3 8.8 2.4 3.7 4.8 6.7 5.3 6.7 1.7 0 5.1-5.1 6.2-9.4 3.5-12.9-6.2-32.5-19.3-39-6.3-3.2-12.1-3.3-16.6-.6zM762.3 632c-5.9 2.6-13.7 10.2-18 17.4-2 3.4-6.5 10.3-10 15.5-3.5 5.2-6.2 9.8-6.1 10.2.3.8 59.7 45.9 60.4 45.9.5 0 9.2-11.8 10.5-14.2.8-1.5-1.2-3.2-12.6-11-7.4-5.1-13.5-9.5-13.5-9.9 0-.3 6.4-2.7 14.3-5.3 7.8-2.6 18.9-6.8 24.7-9.4l10.5-4.7 5.3-11.8c3-6.5 5.3-11.9 5.1-12.1-.2-.2-4.6 2-9.8 4.9-10.3 5.8-35.8 17.2-36.6 16.3-.3-.3 0-2.9.6-5.8 2.3-10.9-.5-21.4-7-25.7-4.3-2.9-11.9-3-17.8-.3zm9.7 17.7c3.3 4.2 2.3 10.4-2.8 19-7.1 12-5.8 11.4-14.6 5.7-4.2-2.7-7.6-5.2-7.6-5.5 0-1.8 9.8-16.4 12.7-19 4.5-3.9 9.3-4 12.3-.2zM718 686.8c0 .5-5 6.1-11.1 12.5L695.8 711l6.3 6.8c3.4 3.7 15.3 16.3 26.3 28l20.1 21.3 11-11.3c6.1-6.2 12.7-13.4 14.9-16l3.8-4.8-3.2-2.7c-5.6-4.8-6.1-4.9-8.9-1.7-1.4 1.6-4.9 5.6-7.8 8.8l-5.2 5.9-7.3-7.1-7.3-7.1 3.9-4 3.9-4-4.4-4c-2.4-2.2-4.7-4-5-4.1-.4 0-1.9 1.6-3.3 3.5-1.5 1.9-3.3 3.5-3.9 3.5-.7 0-4.3-3.1-8-6.8-6-6.1-6.6-7-5.2-8.2.8-.7 3.9-4 6.7-7.3l5.2-6-4.4-3.8c-4.5-3.9-6-4.6-6-3.1zM263 700.4c-15.8 3.6-23.2 13.2-23.1 30.1.1 18.1 11.9 38.4 29.7 51.1 6.4 4.5 18.1 10.4 20.9 10.4.9 0 2.6 2.4 4.2 6l2.6 6h7.3c8 0 8.3-.3 5.9-5.1-1.9-3.5-1.3-4.9 2-4.9 4.8 0 13-4 17.2-8.2 13.4-13.7 11.8-35.3-4.3-56.7-14.9-19.9-43.5-33.1-62.4-28.7zm32.2 19.3c10.1 5 19.8 14.5 24.4 23.9 3.9 8 4.6 19.1 1.5 25.2-2.3 4.5-6.8 8.3-12 10.1-6.3 2.1-6.6 1.8-9.9-8.2l-3.1-9.2-6.5-.9c-3.7-.5-6.9-.6-7.3-.2-.4.3.3 3.7 1.5 7.4 1.2 3.8 2.2 7.4 2.2 8.1 0 2.2-10-4.1-16.5-10.5-14.1-13.7-18.4-33.2-9.8-43.5 4.4-5.2 9.5-7 18.9-6.7 7.2.3 9 .8 16.6 4.5zM671.8 730.9c-9.8 7.5-34.2 23.1-37.9 24.3-1.3.4 3.6 10.8 5.1 10.8 1.5 0 19.6-10.7 28.4-16.7 4.3-2.9 8-5.2 8.2-5.1.5.5-3.5 23.1-4.5 25.4-.5 1.2-4.6 4.2-9 6.8l-8.1 4.8 1.7 3.1c3.8 7.4 4.2 7.8 6.9 6 1.4-.9 2.7-1.3 3-1 .7.6-2.1 10.1-5.9 20l-2.9 7.9 2.2 4.9c1.3 2.7 2.8 4.9 3.3 4.9 1.5 0 22.2-11.6 34.1-19.2 10.6-6.7 28.6-19.9 37.1-27.1l3.9-3.5-3.8-4.6c-2.6-3.2-4.2-4.4-4.9-3.8-.7.5-4.8 3.8-9.2 7.3-13.9 11.2-39.9 28.8-41 27.8-.2-.2 1.2-6.5 3.2-13.9l3.5-13.5 7.9-5.5c4.3-3 7.9-5.9 7.9-6.3 0-1.2-6.2-9.7-7-9.7-.4 0-1.3.7-2 1.5-2.5 3-3.2 1.6-2.5-4.3.4-3.1 1-9.2 1.4-13.5l.7-7.7-4.1-4.5-4-4.4-11.7 8.8zM361.2 761.2c-2.2 4-8.2 14.9-13.3 24.3-8.9 16.1-9.4 17.3-9.4 23 0 3.8.7 7.3 1.8 9.6 6.9 13.9 24.4 24 41.6 23.9 11.1-.1 19.8-3.9 23.6-10.2 1.3-2.3 16.5-52.6 16.5-54.7 0-.7-12.9-4.5-13.4-4-.2.2-4.2 11.6-9 25.3-5.2 15.1-9.4 25.8-10.7 27.3-9.4 9.9-33.9-.1-33.9-13.8 0-1.9 4.3-12.1 11.5-27.1 6.3-13.2 11.5-24.1 11.5-24.4 0-.4-11.6-6.4-12.4-6.4-.3 0-2.2 3.3-4.4 7.2zM609 766.6c-7.5 3.2-31.1 10.9-38.5 12.4-3.3.7-6.4 1.6-6.8 2-.7.6 14.8 73.7 15.8 74.8.6.6 28.3-7.1 41.5-11.6 17.3-6 26-9.7 26-11.2 0-.8-3.6-8.7-4.4-9.7-.1-.1-5.4 1.8-11.7 4.3-10.9 4.3-31.2 11-35.3 11.6-1.6.3-2.3-1-4.2-7.7-1.2-4.4-2.3-8.7-2.3-9.6-.1-1.1 2.9-2.4 10.9-4.9 6.1-1.8 11-3.8 11-4.4 0-.9-2.9-9.5-3.6-10.4-.1-.2-4.6 1.1-10 2.8-5.5 1.7-10.4 3.3-11 3.5-1 .3-7-18.2-6.2-19 .2-.2 4.4-1.5 9.3-3 9.7-3 29.5-10.3 30.8-11.4 1-1-3.3-11.1-4.7-11-.6 0-3.6 1.1-6.6 2.5zM434.1 794.1c-10.6 45.7-13.9 60.5-13.5 61 .5.9 19.6 4.4 35.4 6.6 18.5 2.6 71.1 2.5 90.5-.1 7.7-1 14.2-2 14.4-2.2.2-.2 0-3-.5-6.1-.7-4.3-1.3-5.7-2.4-5.6-35.3 5.2-76 5.5-107.6.8-5.3-.8-9.9-1.6-10-1.8-.2-.2.4-4.7 1.4-10 1.6-9.6 1.7-9.8 4.2-9.2 14.5 3.2 61.3 5.5 77.5 3.8l8-.8-.3-5c-.1-2.8-.4-5.5-.6-6-.2-.7-5-.7-14.2-.1-19 1.2-67.3-2-70-4.6-.3-.4.2-4.9 1.1-10.1l1.7-9.3 8.6 1.2c15.2 2.3 39.2 3.6 53.7 3 11.2-.5 38.5-3.3 39.1-3.9.1-.1-.2-2.8-.8-6-.6-3.4-1.5-5.7-2.3-5.7-.7 0-7.5.7-15.1 1.6-10.7 1.3-19.5 1.5-38.4 1.1-23.3-.5-28.6-1-53.1-5.3l-3.7-.6-3.1 13.3z"/></svg>