<svg version="1" xmlns="http://www.w3.org/2000/svg" width="1333.333" height="1333.333" viewBox="0 0 1000.000000 1000.000000"><path d="M474.9 10.5c-.2.2-5.8.6-12.4 1-6.5.3-12.2.8-12.5 1-.3.1-3.5.6-7.2.9-3.7.4-7.7.9-9 1.1-1.3.2-5.9.9-10.3 1.5-4.4.7-13.4 2.3-20 3.7-14.6 3-13.2 2.6-23.5 5.3-4.7 1.2-9.2 2.3-10 2.5-.8.2-4.6 1.3-8.5 2.5-3.8 1.2-7.4 2.2-8 2.4-3.7 1-15.6 5-21.2 7.2-17.7 6.8-25.1 9.8-28.4 11.5-2 1-3.9 1.5-4.3 1.2-.3-.4-.6-.1-.6.5 0 .7-.5 1.2-1.2 1.2-1.2 0-28 12.9-28.8 13.9-.3.3-2.5 1.6-5 2.8-4.8 2.4-9.3 5-21.2 12.3-4 2.5-7.7 4.7-8.3 4.9-.5.2-1.2.7-1.5 1-.3.3-4.8 3.5-10 7-14.9 10.2-37.7 27.8-44.6 34.5-1.2 1.2-4.6 4.1-7.4 6.6-6.7 5.7-25.5 24.5-34 33.9-3.6 4-7.4 8.3-8.5 9.4-1.1 1.2-3.5 4.2-5.4 6.7-1.9 2.5-3.9 4.9-4.5 5.5-.6.5-2.4 2.8-4 5s-3.4 4.4-4 5c-.6.5-2.7 3.2-4.5 6-1.9 2.7-3.8 5.2-4.1 5.5-1.3 1.1-20 29.9-20 30.8 0 .6-.4 1.2-.8 1.4-.7.3-8.1 12.8-9.1 15.3-.2.5-1 1.8-1.9 2.7-.8 1-1.1 1.8-.6 1.8.5 0 .5.4-.1.8-.5.4-2.6 3.8-4.5 7.7-1.9 3.8-3.9 7.3-4.3 7.6-.5.3-.9 1-.9 1.5.1.5-1.7 4.7-4 9.4-2.2 4.7-6.2 14.1-9 21-2.7 6.9-5.3 13.4-5.8 14.5-2.6 6-10.8 31.1-12.5 38.2-.3 1-2 7.8-3.9 15.2-1.9 7.3-3.7 14.7-4 16.5-.3 1.7-1.6 9.2-3 16.6-2.1 11.9-3.6 22.3-5.1 35.5-2.8 24.3-2.8 73 0 99 1.4 13.7 4.3 32.4 8 52 .9 4.7 7.2 29.3 9.5 37 1.2 3.8 2.3 7.7 2.5 8.5.2.8.4 1.5.5 1.5.1 0 .3.7.5 1.5.7 3 8.5 24.7 10.6 29.5.4 1.1 2 4.9 3.5 8.5 1.4 3.6 3.5 8.4 4.5 10.7 1 2.3 1.9 4.5 1.9 4.8 0 .4.9 2 2.1 3.6 1.1 1.6 1.8 2.9 1.5 2.9-1 0 13 26.6 20.9 39.8 2.8 4.6 5.4 9.2 6 10.3.5 1 1.3 1.9 1.7 1.9.5 0 .8.5.8 1.1 0 .8 9.7 15.8 13.3 20.4 1.6 2.2 6.3 8.4 8.2 11.1 2.6 3.5 13.4 17.2 16 20.2 1.1 1.3 2.8 3.3 3.8 4.5 9 10.8 29.3 31.6 42.2 43.2 4.3 3.8 8.5 7.7 9.4 8.5.9.8 5.7 4.8 10.6 8.7 5 4 9.5 7.7 10.1 8.2 6.7 5.5 34.7 25.1 35.9 25.1.3 0 1.4.8 2.5 1.8 1.1.9 2.3 1.5 2.7 1.4.3-.2.9.1 1.2.6 1.6 2.5 41.1 23.6 58.1 31 9.6 4.2 21.8 9.1 29 11.7 4.1 1.5 9.1 3.3 11 4 3.3 1.3 10.3 3.6 12.5 4.1.6.2 6.6 1.9 13.5 3.9 10.8 3.1 16 4.4 23 6 .8.2 3.5.8 6 1.4 2.5.5 6.1 1.3 8 1.6 1.9.3 8.5 1.5 14.5 2.5 12.5 2.3 14.1 2.5 33 4.6 22.9 2.5 84.1 2.6 97 0 1.1-.2 5.1-.7 8.8-1.1 3.7-.3 7.6-.8 8.6-1 1-.2 4.2-.6 7.1-1 2.9-.4 6.2-.9 7.4-1.1 2.5-.5 6.3-1.2 10.9-1.9 1.7-.3 9.3-2 16.7-3.6 7.4-1.7 14.2-3.2 15-3.4.8-.2 1.5-.4 1.5-.5 0-.1.7-.3 1.5-.5 13.6-3.2 50.1-15.5 60.7-20.5 2.4-1.1 4.5-2 4.8-2 1 0 21.1-9.5 33-15.6 17-8.7 19-9.8 19.3-10.7.2-.4 1-.7 1.8-.7s1.4-.5 1.4-1c0-.6.3-.9.8-.8.4.1 2.6-1 5-2.5s5.4-3.3 6.8-3.9c1.3-.6 2.4-1.5 2.4-2 0-.4.6-.8 1.3-.8.7 0 2.3-.9 3.5-2 1.2-1.1 2.5-2 3-2s2.2-1.1 3.8-2.5c1.6-1.4 3.7-2.8 4.7-3.1.9-.3 1.7-1 1.7-1.5s.5-.9 1-.9c.9 0 11.2-7.2 13-9 .3-.3 2.3-1.8 4.5-3.5 2.2-1.6 4.5-3.4 5.1-4 .6-.5 2.6-2.1 4.4-3.5 3.2-2.4 10.7-8.6 14-11.6.8-.8 4.4-4 7.9-7.1 8.8-7.9 25.3-24.5 33.1-33.3 3.6-4 7.4-8.2 8.5-9.4 1.1-1.2 3.8-4.4 5.9-7.1 2.2-2.8 4.8-5.8 5.8-6.8s1.8-2.1 1.8-2.5c0-.4 1.4-2.1 3-3.9 1.7-1.8 3-3.5 3-3.8 0-.4 1.6-2.6 3.5-4.9 1.9-2.4 3.5-4.6 3.5-5 0-.4.7-1.4 1.5-2.3 2.2-2.2 18.5-27 18.5-28.2 0-.5.4-1.1.8-1.3.8-.3 4.5-6.5 9.3-15.6.9-1.8 2.3-3.9 2.9-4.7.7-.8.9-1.5.4-1.5s-.4-.4.1-.8c.6-.4 2.4-3.4 4-6.7 1.7-3.3 3.4-6.3 3.8-6.6.5-.3.9-.9.8-1.2 0-.6 2.3-6.1 7.6-17.7 3.4-7.5 3.8-8.6 6.9-16 3-7.2 12.1-32.8 13.4-37.5.5-1.7 1.6-5.5 2.5-8.5.9-3 1.7-6.2 1.9-7 .2-.8 1.6-6.1 3-11.6 1.5-5.6 2.9-11.2 3.1-12.5.3-1.3 1.4-6.9 2.5-12.4 2.2-11.4 3.6-19.8 4.5-27 .3-2.8.8-6.4 1.1-8 .4-3.1 1-8.9 2.2-23.5.9-11.2.9-58.1 0-69.5-1.5-19.1-1.8-22.1-2.3-24.5-.2-1.4-.7-4.8-1.1-7.5-.5-4.3-3.4-21.9-4.9-29.5-.7-3.7-1.9-9.4-2-10-.1-.3-.5-1.9-.9-3.5-.4-1.7-1.6-6.6-2.8-11-1.1-4.4-2.1-8.5-2.2-9-.1-.6-1-3.7-2-7s-1.9-6.5-2.1-7c-.1-.6-.4-1.7-.7-2.5-.3-.8-2.5-7.1-4.8-14-2.2-6.9-4.5-13.4-5-14.5-.5-1.1-2.6-6.1-4.6-11-2-5-4.6-11-5.7-13.5-1.2-2.5-2.1-4.7-2.2-5-.1-1.2-11.9-24.8-13.5-27-1-1.4-1.7-2.7-1.7-3 .1-.4-5.8-11.1-8.3-15-.5-.8-2.4-4.1-4.2-7.3-1.8-3.1-3.6-5.7-4-5.7-.5 0-.8-.4-.8-.9 0-.8-7.6-12.9-9.8-15.6-.5-.6-1.7-2.4-2.8-4-1-1.7-2.4-3.7-3.1-4.5-2.8-3.4-6.9-8.9-8.3-11-.8-1.3-2.5-3.3-3.7-4.6-1.3-1.3-2.3-2.7-2.3-3.1 0-.4-2.2-3.2-4.8-6-2.6-2.9-5.4-6.2-6.3-7.3-8.8-11.2-39-41.5-52.4-52.5-2-1.7-4.8-4-6.3-5.3-1.4-1.2-3.9-3.3-5.5-4.5-1.6-1.2-3.4-2.7-4-3.2-4.1-3.5-10.6-8.5-11.1-8.5s-2.4-1.4-6-4.5c-2.7-2.3-7.6-5.5-8.5-5.5-.5 0-1.1-.4-1.3-.8-.4-1-17.9-12.4-27.8-18.3-23.2-13.6-51.4-27.1-75.4-36-4.5-1.7-9.4-3.6-11.1-4.2-1.6-.7-3.2-1.2-3.5-1.3-.3 0-1.2-.3-2-.7-3.9-1.5-29.1-8.9-34.6-10.2-1-.2-4.8-1.2-8.4-2-10-2.5-27.2-6-34.5-7-2.3-.3-5.2-.7-6.5-1-1.4-.3-4.7-.8-7.5-1.1-2.7-.3-6.1-.7-7.5-.9-1.4-.2-5.6-.6-9.5-1-3.8-.4-7.9-.9-9-1.2-2.4-.6-64.1-1.4-64.6-.8z"/></svg>